<?xml version="1.0" encoding="utf-8"?>
<!-- Generator: Adobe Illustrator 27.9.0, SVG Export Plug-In . SVG Version: 6.00 Build 0)  -->
<svg version="1.1" id="Outline" xmlns="http://www.w3.org/2000/svg" xmlns:xlink="http://www.w3.org/1999/xlink" x="0px" y="0px"
	 viewBox="0 0 512 512" enable-background="new 0 0 512 512" xml:space="preserve">
<path d="M180.479,159.122c-0.048,11.782,9.465,21.372,21.247,21.419c0.058,0,0.117,0,0.175,0l99.259-0.006L150.319,331.393
	c-8.331,8.332-8.33,21.839,0.002,30.17s21.839,8.33,30.17-0.002l150.841-150.858l0.006,99.259
	c-0.048,11.782,9.465,21.372,21.247,21.419c0.058,0,0.117,0,0.175,0c11.732-0.036,21.234-9.539,21.269-21.271l-0.158-129.58
	c0.033-11.298-4.416-22.147-12.371-30.169l0,0c-8.01-7.862-18.796-12.252-30.02-12.217l-129.58-0.143
	C190.166,137.953,180.596,147.389,180.479,159.122z"/>
</svg>
