<?xml version="1.0" encoding="utf-8"?>
<!-- Generator: Adobe Illustrator 27.9.0, SVG Export Plug-In . SVG Version: 6.00 Build 0)  -->
<svg version="1.1" id="Outline" xmlns="http://www.w3.org/2000/svg" xmlns:xlink="http://www.w3.org/1999/xlink" x="0px" y="0px"
	 viewBox="0 0 512 512" enable-background="new 0 0 512 512" xml:space="preserve">
<path fill="#FFFFFF" d="M405.333,21.333H106.667C47.786,21.404,0.071,69.119,0,128v256c0.071,58.881,47.786,106.596,106.667,106.667
	h298.667C464.214,490.596,511.93,442.881,512,384V128C511.93,69.119,464.214,21.404,405.333,21.333z M106.667,64h298.667
	c26.134,0.051,49.611,15.987,59.307,40.256L301.269,267.648c-25.031,24.931-65.508,24.931-90.539,0L47.36,104.256
	C57.056,79.987,80.533,64.051,106.667,64z M405.333,448H106.667c-35.346,0-64-28.654-64-64V160l137.899,137.813
	c41.692,41.587,109.177,41.587,150.869,0L469.333,160v224C469.333,419.346,440.68,448,405.333,448z"/>
</svg>
