<?xml version="1.0" encoding="utf-8"?>
<!-- Generator: Adobe Illustrator 27.9.0, SVG Export Plug-In . SVG Version: 6.00 Build 0)  -->
<svg version="1.1" id="Outline" xmlns="http://www.w3.org/2000/svg" xmlns:xlink="http://www.w3.org/1999/xlink" x="0px" y="0px"
	 viewBox="0 0 512 512" enable-background="new 0 0 512 512" xml:space="preserve">
<path fill="#FFFFFF" d="M493.205,18.816C477.65,3.071,454.998-3.4,433.472,1.749L92.139,73.643
	c-58.306,7.996-99.09,61.745-91.093,120.05c3.161,23.048,13.778,44.429,30.229,60.878L67.925,291.2
	c4.006,4.005,6.255,9.439,6.251,15.104v67.584c0.047,9.503,2.235,18.872,6.4,27.413l-0.171,0.149l0.555,0.555
	c6.251,12.568,16.46,22.733,29.056,28.928l0.555,0.555l0.149-0.171c8.541,4.165,17.911,6.353,27.413,6.4h67.584
	c5.654-0.004,11.079,2.236,15.083,6.229l36.629,36.629c19.843,20.063,46.875,31.375,75.093,31.424
	c11.643-0.014,23.206-1.917,34.24-5.632c38.01-12.481,65.655-45.434,71.339-85.035l72-342.08
	C515.52,57.538,509.1,34.573,493.205,18.816z M98.133,261.077l-36.672-36.629c-17.434-17.014-23.439-42.583-15.403-65.579
	c7.794-23.599,28.632-40.486,53.333-43.221l337.941-71.147L116.8,365.077v-58.773C116.865,289.341,110.144,273.056,98.133,261.077z
	 M396.181,414.037c-4.867,35.01-37.193,59.445-72.202,54.578c-13.759-1.913-26.523-8.25-36.363-18.056l-36.693-36.693
	c-11.963-12.029-28.24-18.773-45.205-18.731h-58.773L467.52,74.667L396.181,414.037z"/>
</svg>
